<?xml version="1.0" encoding="UTF-8"?>
<svg width="29.0909091px" height="29.0909091px" viewBox="0 0 29.0909091 29.0909091" version="1.1" xmlns="http://www.w3.org/2000/svg" xmlns:xlink="http://www.w3.org/1999/xlink">
    <g id="移动端-Vxxx" stroke="none" stroke-width="1" fill="none" fill-rule="evenodd">
        <g id="访客预约信息-修改预约成功" transform="translate(-171.454545, -321.454545)">
            <g id="编组-13" transform="translate(46.000000, 304.000000)">
                <g id="Icon/面型/警告" transform="translate(124.000000, 16.000000)">
                    <rect id="矩形" x="0" y="0" width="32" height="32"></rect>
                    <g id="编组-2" transform="translate(1.454545, 1.454545)">
                        <circle id="形状结合" fill="#08C481" cx="14.5454545" cy="14.5454545" r="14.5454545"></circle>
                        <path d="M20.9444567,9.67069772 C21.4275716,9.18815268 22.2103936,9.1886146 22.6929386,9.67172945 C23.1691344,10.1484875 23.1749503,10.9171176 22.7107266,11.4010089 L22.6919069,11.4202114 L13.5142545,20.5869818 L13.511535,20.5901275 C13.5066942,20.5955994 13.5026412,20.5998753 13.4986256,20.6038574 L13.4830342,20.6184832 C12.8640885,21.2360716 11.8655948,21.241522 11.240883,20.636051 L11.2204245,20.6158691 L6.39752704,15.7823718 C5.9152273,15.2990121 5.9160866,14.5161904 6.39944634,14.0338907 C6.87644608,13.557937 7.64507904,13.5525113 8.12873464,14.0169806 L8.14792751,14.03581 L12.3538909,18.2510545 L20.9444567,9.67069772 Z" id="路径-7" fill="#FFFFFF" fill-rule="nonzero"></path>
                    </g>
                </g>
            </g>
        </g>
    </g>
</svg>