<?xml version="1.0" encoding="UTF-8"?>
<svg width="29.0909091px" height="29.0909091px" viewBox="0 0 29.0909091 29.0909091" version="1.1" xmlns="http://www.w3.org/2000/svg" xmlns:xlink="http://www.w3.org/1999/xlink">
    <g id="移动端-Vxxx" stroke="none" stroke-width="1" fill="none" fill-rule="evenodd">
        <g id="访客预约信息-撤销提醒" transform="translate(-172.454545, -321.454545)" fill="#EE8300">
            <g id="编组-13" transform="translate(47.000000, 304.000000)">
                <g id="Icon/面型/警告" transform="translate(124.000000, 16.000000)">
                    <g id="编组-2" transform="translate(1.454545, 1.454545)">
                        <path d="M14.5454545,0 C22.5786873,0 29.0909091,6.51222182 29.0909091,14.5454545 C29.0909091,22.5786873 22.5786873,29.0909091 14.5454545,29.0909091 C6.51222182,29.0909091 0,22.5786873 0,14.5454545 C0,6.51222182 6.51222182,0 14.5454545,0 Z M14.5454545,20.9454545 C13.7421313,20.9454545 13.0909091,21.5966767 13.0909091,22.4 C13.0909091,23.2033233 13.7421313,23.8545455 14.5454545,23.8545455 C15.3487778,23.8545455 16,23.2033233 16,22.4 C16,21.5966767 15.3487778,20.9454545 14.5454545,20.9454545 Z M14.5454545,5.74545455 C13.8626298,5.74545455 13.3090909,6.2989934 13.3090909,6.98181818 L13.3090909,17.3090909 C13.3090909,17.9919157 13.8626298,18.5454545 14.5454545,18.5454545 C15.2282793,18.5454545 15.7818182,17.9919157 15.7818182,17.3090909 L15.7818182,6.98181818 C15.7818182,6.2989934 15.2282793,5.74545455 14.5454545,5.74545455 Z" id="形状结合"></path>
                    </g>
                </g>
            </g>
        </g>
    </g>
</svg>